HIERARCHY
ROOT Hips
{
	OFFSET 0.00000 0.00000 0.00000
	CHANNELS 6 Xposition Yposition Zposition Zrotation Yrotation Xrotation 
	JOINT LHipJoint
	{
		OFFSET 0 0 0
		CHANNELS 3 Zrotation Yrotation Xrotation
		JOINT LeftUpLeg
		{
			OFFSET 1.65674 -1.80282 0.62477
			CHANNELS 3 Zrotation Yrotation Xrotation
			JOINT LeftLeg
			{
				OFFSET 2.59720 -7.13576 0.00000
				CHANNELS 3 Zrotation Yrotation Xrotation
				JOINT LeftFoot
				{
					OFFSET 2.49236 -6.84770 0.00000
					CHANNELS 3 Zrotation Yrotation Xrotation
					JOINT LeftToeBase
					{
						OFFSET 0.19704 -0.54136 2.14581
						CHANNELS 3 Zrotation Yrotation Xrotation
						End Site
						{
							OFFSET 0.00000 -0.00000 1.11249
						}
					}
				}
			}
		}
	}
	JOINT RHipJoint
	{
		OFFSET 0 0 0
		CHANNELS 3 Zrotation Yrotation Xrotation
		JOINT RightUpLeg
		{
			OFFSET -1.61070 -1.80282 0.62476
			CHANNELS 3 Zrotation Yrotation Xrotation
			JOINT RightLeg
			{
				OFFSET -2.59502 -7.12977 0.00000
				CHANNELS 3 Zrotation Yrotation Xrotation
				JOINT RightFoot
				{
					OFFSET -2.46780 -6.78024 0.00000
					CHANNELS 3 Zrotation Yrotation Xrotation
					JOINT RightToeBase
					{
						OFFSET -0.23024 -0.63258 2.13368
						CHANNELS 3 Zrotation Yrotation Xrotation
						End Site
						{
							OFFSET -0.00000 -0.00000 1.11569
						}
					}
				}
			}
		}
	}
	JOINT LowerBack
	{
		OFFSET 0 0 0
		CHANNELS 3 Zrotation Yrotation Xrotation
		JOINT Spine
		{
			OFFSET 0.01961 2.05450 -0.14112
			CHANNELS 3 Zrotation Yrotation Xrotation
			JOINT Spine1
			{
				OFFSET 0.01021 2.06436 -0.05921
				CHANNELS 3 Zrotation Yrotation Xrotation
				JOINT Neck
				{
					OFFSET 0 0 0
					CHANNELS 3 Zrotation Yrotation Xrotation
					JOINT Neck1
					{
						OFFSET 0.00713 1.56711 0.14968
						CHANNELS 3 Zrotation Yrotation Xrotation
						JOINT Head
						{
							OFFSET 0.03429 1.56041 -0.10006
							CHANNELS 3 Zrotation Yrotation Xrotation
							End Site
							{
								OFFSET 0.01305 1.62560 -0.05265
							}
						}
					}
				}
				JOINT LeftShoulder
				{
					OFFSET 0 0 0
					CHANNELS 3 Zrotation Yrotation Xrotation
					JOINT LeftArm
					{
						OFFSET 3.54205 0.90436 -0.17364
						CHANNELS 3 Zrotation Yrotation Xrotation
						JOINT LeftForeArm
						{
							OFFSET 4.86513 -0.00000 -0.00000
							CHANNELS 3 Zrotation Yrotation Xrotation
							JOINT LeftHand
							{
								OFFSET 3.35554 -0.00000 0.00000
								CHANNELS 3 Zrotation Yrotation Xrotation
								JOINT LeftFingerBase
								{
									OFFSET 0 0 0
									CHANNELS 3 Zrotation Yrotation Xrotation
									JOINT LeftHandIndex1
									{
										OFFSET 0.66117 -0.00000 0.00000
										CHANNELS 3 Zrotation Yrotation Xrotation
										End Site
										{
											OFFSET 0.53306 -0.00000 0.00000
										}
									}
								}
								JOINT LThumb
								{
									OFFSET 0 0 0
									CHANNELS 3 Zrotation Yrotation Xrotation
									End Site
									{
										OFFSET 0.54120 -0.00000 0.54120
									}
								}
							}
						}
					}
				}
				JOINT RightShoulder
				{
					OFFSET 0 0 0
					CHANNELS 3 Zrotation Yrotation Xrotation
					JOINT RightArm
					{
						OFFSET -3.49802 0.75994 -0.32616
						CHANNELS 3 Zrotation Yrotation Xrotation
						JOINT RightForeArm
						{
							OFFSET -5.02649 -0.00000 0.00000
							CHANNELS 3 Zrotation Yrotation Xrotation
							JOINT RightHand
							{
								OFFSET -3.36431 -0.00000 0.00000
								CHANNELS 3 Zrotation Yrotation Xrotation
								JOINT RightFingerBase
								{
									OFFSET 0 0 0
									CHANNELS 3 Zrotation Yrotation Xrotation
									JOINT RightHandIndex1
									{
										OFFSET -0.73041 -0.00000 0.00000
										CHANNELS 3 Zrotation Yrotation Xrotation
										End Site
										{
											OFFSET -0.58887 -0.00000 0.00000
										}
									}
								}
								JOINT RThumb
								{
									OFFSET 0 0 0
									CHANNELS 3 Zrotation Yrotation Xrotation
									End Site
									{
										OFFSET -0.59786 -0.00000 0.59786
									}
								}
							}
						}
					}
				}
			}
		}
	}
}
MOTION
Frames: 14
Frame Time: .0083333
9.7174 16.8005 -17.5182 2.3583 4.8482 -2.5028 0.0000 0.0000 0.0000 -28.6609 2.3493 19.3635 0.6670 5.2230 14.5456 0.5752 -0.8650 -14.0563 0.4073 -4.0971 -11.3500 0.0000 0.0000 0.0000 16.2214 15.5731 -24.8560 -2.1716 -9.2147 26.4691 -0.1528 -8.2314 -14.3832 -0.3698 3.9059 -10.8120 -3.1034 -2.5718 4.5183 1.6911 -3.5375 2.6842 3.6106 -1.8239 0.5294 -0.8103 3.2606 -13.4166 -3.6623 4.5144 -2.3982 -0.7803 2.1515 1.5865 0.0000 -0.0000 0.0000 -88.8090 -3.1646 37.3655 44.1766 -50.3587 -21.6028 -0.0000 0.0000 -25.7654 22.7693 15.6512 6.4604 -7.1250 0.0000 -0.0000 -4.6759 46.8270 -0.2113 0.0000 -0.0000 0.0000 89.8997 -14.8904 4.9826 -7.3200 12.4446 -0.7992 0.0000 0.0000 4.8513 -18.9204 14.7624 -4.9917 7.1250 -0.0000 -0.0000 5.8380 -14.4710 4.2163
9.7046 16.7901 -17.3149 2.7932 4.8838 -2.5118 0.0000 0.0000 0.0000 -29.0724 2.4336 19.6361 0.7401 5.4957 15.3281 0.5315 -0.6112 -13.5755 0.6315 -5.0848 -14.1507 0.0000 0.0000 0.0000 15.9143 15.7195 -24.8531 -2.3626 -9.5837 27.6389 -0.0094 -9.4944 -13.6884 -0.3911 4.0154 -11.1201 -3.5139 -2.5935 4.4340 1.5730 -3.5800 2.5899 3.7184 -1.8472 0.5015 -1.2737 3.2157 -13.8116 -3.1219 4.5346 -1.9223 -0.5185 2.1669 1.7863 0.0000 -0.0000 0.0000 -89.0070 -2.4622 37.0797 43.6300 -50.0794 -21.1827 -0.0000 0.0000 -26.0411 23.3894 14.5212 6.1895 -7.1250 0.0000 -0.0000 -3.8772 45.7028 -0.0674 0.0000 -0.0000 0.0000 89.9714 -14.9078 3.9656 -7.1712 12.2007 -0.7674 0.0000 0.0000 5.6377 -18.9132 15.1324 -5.1112 7.1250 -0.0000 -0.0000 5.8557 -14.0861 4.2773
9.6964 16.7857 -17.1041 2.9773 4.7808 -2.6419 0.0000 0.0000 0.0000 -29.2418 2.6415 20.0124 0.8219 5.7844 16.1603 0.4745 -0.0682 -12.9912 0.9792 -6.2990 -17.6546 0.0000 0.0000 0.0000 15.9374 15.6888 -24.6478 -2.5302 -9.8926 28.6298 0.0843 -10.1058 -12.9322 -0.3784 3.9504 -10.9373 -3.6293 -2.5902 4.2016 1.5348 -3.5718 2.7204 3.7266 -1.8524 0.7699 -1.4224 3.1871 -14.1648 -3.0750 4.5280 -1.8535 -0.4722 2.1607 1.8668 0.0000 -0.0000 0.0000 -89.1506 -2.1223 36.8576 42.7674 -49.6267 -20.5234 -0.0000 0.0000 -25.9037 23.9789 13.9581 6.1238 -7.1250 0.0000 -0.0000 -3.2321 45.1730 -0.0138 0.0000 -0.0000 0.0000 90.0127 -14.5015 2.4335 -6.9582 11.8504 -0.7230 0.0000 0.0000 7.1565 -19.2417 15.5058 -5.3311 7.1250 -0.0000 -0.0000 5.6482 -13.6621 4.1750
9.6851 16.7841 -16.8960 2.8855 4.5814 -2.7745 0.0000 0.0000 0.0000 -29.0449 2.9292 19.9964 0.9563 6.2273 17.4453 0.4268 0.2140 -12.4210 1.3250 -7.2898 -20.5769 0.0000 0.0000 0.0000 16.2823 15.7454 -24.3489 -2.6662 -10.1340 29.4119 0.1334 -10.0613 -11.8813 -0.3603 3.8560 -10.6718 -3.4516 -2.5347 4.1069 1.5259 -3.4892 2.7144 3.6111 -1.8089 0.7970 -1.1496 3.1735 -14.1117 -3.3692 4.4727 -1.9034 -0.6172 2.1242 1.8562 -0.0000 -0.0000 0.0000 -89.2119 -1.7509 36.6754 41.5535 -48.9638 -19.6031 -0.0000 0.0000 -25.1024 24.1606 13.7284 6.0768 -7.1250 0.0000 -0.0000 -3.0267 44.9479 0.0039 -0.0000 -0.0000 0.0000 90.0992 -14.4334 1.5662 -6.8626 11.6929 -0.7035 0.0000 0.0000 7.7782 -19.3662 15.7139 -5.4379 7.1250 -0.0000 -0.0000 5.5729 -13.4313 4.1461
9.6719 16.7889 -16.6944 1.9990 4.3531 -3.0472 0.0000 0.0000 0.0000 -27.9488 3.2018 19.7412 1.1705 6.8673 19.3229 0.3922 0.1974 -11.9036 1.5249 -7.7971 -22.0994 0.0000 0.0000 0.0000 17.5375 15.8036 -23.8783 -2.7677 -10.3092 29.9839 0.1296 -9.6127 -11.1737 -0.2503 3.2193 -8.8899 -2.5061 -2.4865 4.3359 1.7570 -3.3986 2.5420 3.3347 -1.7439 0.4400 -0.9429 3.1863 -13.8663 -3.5468 4.4627 -1.7675 -0.7125 2.1132 1.8690 0.0000 0.0000 0.0000 -89.4746 -1.0710 36.4141 40.1994 -48.1876 -18.5877 -0.0000 0.0000 -24.7135 24.3013 13.1695 5.8737 -7.1250 0.0000 -0.0000 -2.8105 44.3604 0.0444 0.0000 0.0000 0.0000 90.0996 -14.7582 1.4814 -6.8254 11.6315 -0.6960 0.0000 0.0000 7.5807 -19.2787 15.5102 -5.3436 7.1250 -0.0000 -0.0000 5.6233 -13.6535 4.1575
9.6663 16.7886 -16.4928 0.9358 4.1992 -3.3585 0.0000 0.0000 0.0000 -26.7039 3.3478 19.4571 1.4506 7.6132 21.5454 0.3596 0.0027 -11.3305 1.3283 -7.2986 -20.6031 0.0000 0.0000 0.0000 19.0526 15.3490 -23.3539 -2.8597 -10.4644 30.4941 0.0711 -8.6536 -10.8656 -0.1399 2.4110 -6.6428 -1.3874 -2.5144 4.4603 2.1081 -3.3949 2.5200 3.0770 -1.7297 0.3024 -0.8289 3.2281 -14.0974 -3.8069 4.5223 -1.5020 -0.8066 2.1266 2.0118 0.0000 -0.0000 0.0000 -89.9460 -0.5322 35.8965 38.8576 -47.3783 -17.5939 -0.0000 0.0000 -24.5533 24.1489 12.8496 5.6941 -7.1250 0.0000 -0.0000 -2.9028 43.9959 0.0720 0.0000 -0.0000 0.0000 89.9351 -14.7166 1.2333 -6.7651 11.5320 -0.6839 0.0000 0.0000 7.7056 -18.9860 14.9755 -5.0806 7.1250 -0.0000 -0.0000 5.8009 -14.2421 4.2176
9.6659 16.7833 -16.2931 0.4362 4.0465 -3.5331 0.0000 0.0000 0.0000 -26.0673 3.4648 18.9628 1.7683 8.3659 23.8311 0.3025 -0.1374 -10.3417 0.9471 -6.1980 -17.3601 0.0000 0.0000 0.0000 19.9210 14.9063 -22.8952 -2.9799 -10.6624 31.1495 0.0084 -7.8707 -11.0439 -0.0751 1.7673 -4.8631 -0.7422 -2.5553 4.3069 2.2768 -3.4274 2.6294 2.8797 -1.7426 0.4742 -0.9178 3.2924 -14.2131 -3.8502 4.6169 -1.6982 -0.7992 2.1744 1.9664 -0.0000 -0.0000 0.0000 -90.3879 -0.2427 35.1346 37.5322 -46.5379 -16.6252 -0.0000 0.0000 -23.8525 23.6440 13.8977 6.0029 -7.1250 0.0000 -0.0000 -3.5324 45.0657 -0.0057 -0.0000 -0.0000 0.0000 89.7605 -14.3933 1.1507 -6.7236 11.4635 -0.6756 0.0000 0.0000 7.7890 -19.0830 14.5432 -4.9649 7.1250 -0.0000 -0.0000 5.7202 -14.6833 4.1043
9.6644 16.7861 -16.0935 0.0795 3.7461 -3.6861 0.0000 0.0000 0.0000 -25.5309 3.7021 18.2901 2.1191 9.1100 26.1399 0.2170 0.1351 -8.8492 0.9508 -6.2096 -17.3937 0.0000 0.0000 0.0000 20.6041 14.9411 -22.4159 -3.1344 -10.9096 31.9755 -0.0268 -7.6875 -11.5171 -0.0380 1.2587 -3.4609 -0.2069 -2.5136 4.1629 2.3395 -3.3554 2.6716 2.6341 -1.7012 0.5663 -1.0744 3.3251 -13.7997 -3.6532 4.6501 -2.2267 -0.7177 2.2121 1.7050 0.0000 0.0000 0.0000 -90.6695 0.1362 34.4531 36.1236 -45.5980 -15.6107 -0.0000 0.0000 -23.0972 23.6061 15.1655 6.5221 -7.1250 0.0000 -0.0000 -3.7926 46.4229 -0.1334 0.0000 0.0000 0.0000 89.7371 -14.2494 1.3753 -6.7877 11.5693 -0.6884 0.0000 0.0000 7.3806 -19.1477 14.1861 -4.8637 7.1250 -0.0000 -0.0000 5.6645 -15.0498 4.0194
9.6602 16.7926 -15.8951 0.2821 3.3782 -3.9004 0.0000 0.0000 0.0000 -25.6318 3.9987 17.5485 2.5135 9.8625 28.5325 0.1251 0.7970 -7.0209 1.3277 -7.2969 -20.5981 0.0000 0.0000 0.0000 20.7024 15.1725 -21.8366 -3.2941 -11.1566 32.8097 -0.0331 -7.7401 -11.7134 -0.0111 0.6815 -1.8729 -0.3996 -2.3804 4.2899 2.3416 -3.1823 2.6192 2.7460 -1.6159 0.4441 -1.2169 3.2897 -13.7846 -3.6218 4.6279 -2.1145 -0.6840 2.2006 1.7346 0.0000 -0.0000 0.0000 -91.0881 0.5607 33.8246 34.6073 -44.5297 -14.5373 -0.0000 0.0000 -22.6603 23.5402 15.6765 6.7136 -7.1250 0.0000 -0.0000 -3.9528 46.9615 -0.1916 0.0000 -0.0000 0.0000 89.6216 -14.1219 1.2382 -6.8221 11.6261 -0.6953 0.0000 0.0000 7.2441 -19.0294 14.2726 -4.8602 7.1250 -0.0000 -0.0000 5.7480 -14.9711 4.0890
9.6470 16.7965 -15.7074 0.4525 3.1198 -4.0864 0.0000 0.0000 0.0000 -25.5492 4.2710 16.5814 2.9607 10.6311 31.0458 0.0509 1.1876 -4.8748 1.4930 -7.7189 -21.8634 0.0000 0.0000 0.0000 20.8574 15.4636 -21.1374 -3.4244 -11.3522 33.4771 -0.0603 -7.6578 -12.1270 -0.0014 0.2423 -0.6657 -0.6556 -2.2695 4.4650 2.3804 -3.0416 2.5674 2.9340 -1.5473 0.3020 -1.2548 3.2644 -13.9836 -3.7245 4.6215 -1.7524 -0.7047 2.1851 1.8935 0.0000 0.0000 0.0000 -91.5506 0.8753 33.2017 32.9612 -43.3002 -13.3955 -0.0000 0.0000 -22.4562 23.1942 15.6762 6.6041 -7.1250 0.0000 -0.0000 -4.2799 46.9127 -0.2024 0.0000 0.0000 0.0000 89.4737 -13.9236 1.0140 -6.8320 11.6424 -0.6973 0.0000 0.0000 7.3960 -19.1777 14.5928 -5.0079 7.1250 -0.0000 -0.0000 5.6576 -14.6219 4.0664
9.6263 16.8049 -15.5261 -0.1551 3.0181 -4.1501 0.0000 0.0000 0.0000 -24.4953 4.2597 15.4154 3.4647 11.4118 33.6817 0.0022 1.5039 -2.3789 1.3950 -7.4720 -21.1216 0.0000 0.0000 0.0000 21.8549 15.5385 -20.5537 -3.5286 -11.5052 34.0034 -0.1326 -7.2283 -12.8990 -0.0019 0.2812 -0.7725 -0.1314 -2.2556 4.4843 2.5539 -3.0011 2.4979 2.8204 -1.5211 0.1997 -1.1871 3.2793 -13.7466 -3.6539 4.6179 -1.8953 -0.6987 2.1908 1.8030 -0.0000 0.0000 0.0000 -91.7745 1.2335 32.6277 31.2761 -41.9624 -12.2540 -0.0000 0.0000 -22.4027 22.8780 15.7796 6.5460 -7.1250 0.0000 -0.0000 -4.5998 46.9789 -0.2251 -0.0000 0.0000 0.0000 89.4643 -13.7324 0.9940 -6.8921 11.7415 -0.7095 0.0000 0.0000 7.3546 -19.2697 15.0304 -5.1804 7.1250 -0.0000 -0.0000 5.6109 -14.1554 4.0884
9.6095 16.8229 -15.3408 -0.7892 3.0635 -4.1254 0.0000 0.0000 0.0000 -23.5080 3.9307 14.1765 4.0234 12.1915 36.4127 -0.0118 2.2037 0.3297 1.4585 -7.6330 -21.6049 0.0000 0.0000 0.0000 22.8300 15.0864 -20.2053 -3.6114 -11.6245 34.4163 -0.2065 -6.6266 -13.4622 -0.0027 0.3354 -0.9217 0.5247 -2.2984 4.3563 2.6421 -3.0338 2.4355 2.5411 -1.5305 0.1790 -0.9757 3.2828 -13.6615 -3.5738 4.5825 -1.9941 -0.7134 2.1775 1.7580 -0.0000 0.0000 0.0000 -91.8091 1.5786 32.0624 29.7340 -40.6643 -11.2359 -0.0000 0.0000 -22.3701 22.5417 16.6270 6.7731 -7.1250 0.0000 -0.0000 -5.1014 47.8314 -0.3572 -0.0000 0.0000 0.0000 89.5719 -13.3820 1.0365 -6.8839 11.7281 -0.7079 0.0000 0.0000 7.3950 -19.4712 15.6906 -5.4618 7.1250 -0.0000 -0.0000 5.5013 -13.4442 4.0908
9.5960 16.8363 -15.1582 -0.7578 3.2015 -3.9071 0.0000 0.0000 0.0000 -23.3336 3.4322 12.6885 4.6251 12.9488 39.1771 0.0195 3.0635 3.0773 1.7279 -8.2747 -23.5516 0.0000 0.0000 0.0000 22.9844 14.7562 -20.0123 -3.6785 -11.7198 34.7478 -0.2631 -6.3073 -14.0167 -0.0001 0.0482 -0.1323 0.5318 -2.3360 3.9648 2.5556 -3.0920 2.4110 2.4327 -1.5595 0.3690 -0.8110 3.2702 -13.9295 -3.5258 4.5498 -1.8288 -0.7228 2.1563 1.8638 0.0000 -0.0000 0.0000 -91.9295 1.6341 31.3642 28.1304 -39.2360 -10.2061 -0.0000 0.0000 -22.1308 22.5288 17.1184 6.9611 -7.1250 0.0000 -0.0000 -5.2262 48.3503 -0.4330 0.0000 -0.0000 0.0000 89.6830 -12.8023 1.2290 -6.8857 11.7309 -0.7082 0.0000 0.0000 7.4263 -19.9093 16.0914 -5.7324 7.1250 -0.0000 -0.0000 5.2255 -12.9757 3.9355
9.5814 16.8366 -14.9914 -0.5304 3.3109 -3.7503 0.0000 0.0000 0.0000 -23.4001 2.9600 11.1693 5.2701 13.6817 41.9770 0.0973 3.3728 5.6738 2.4330 -9.7150 -28.0588 0.0000 0.0000 0.0000 22.9384 14.7495 -19.6459 -3.7343 -11.7982 35.0217 -0.3166 -6.2332 -14.7241 -0.0012 -0.2228 0.6122 0.2050 -2.3415 3.8679 2.5420 -3.1107 2.3600 2.5987 -1.5724 0.3881 -0.9038 3.3090 -14.1362 -3.3363 4.6168 -1.7325 -0.6383 2.1921 1.9254 0.0000 0.0000 0.0000 -92.3061 1.6190 30.4146 26.5042 -37.7023 -9.1943 -0.0000 0.0000 -21.6213 22.2890 17.2362 6.9252 -7.1250 0.0000 -0.0000 -5.4841 48.4389 -0.4665 0.0000 0.0000 0.0000 89.5880 -12.2611 1.6843 -6.9966 11.9136 -0.7309 0.0000 0.0000 7.0098 -19.9319 16.1688 -5.7661 7.1250 -0.0000 -0.0000 5.2140 -12.8922 3.9359
